<svg width="16" height="16" viewBox="0 0 16 16" fill="none" xmlns="http://www.w3.org/2000/svg">
<g id="Group 65663">
<g id="Group 65663_2">
<rect id="Rectangle 6538" x="5.9375" y="5.93359" width="8.99489" height="9.00191" rx="1" stroke="currentColor"/>
<path id="Subtract" fill-rule="evenodd" clip-rule="evenodd" d="M2.43438 0.933398C1.60595 0.933398 0.934375 1.60497 0.934375 2.4334V9.43531C0.934375 10.2637 1.60595 10.9353 2.43438 10.9353H3.93438C4.21052 10.9353 4.43438 10.7115 4.43438 10.4353C4.43438 10.1592 4.21052 9.93531 3.93438 9.93531H2.43438C2.15823 9.93531 1.93438 9.71145 1.93438 9.43531V2.4334C1.93438 2.15726 2.15823 1.9334 2.43438 1.9334H9.42926C9.7054 1.9334 9.92926 2.15726 9.92926 2.4334V3.9334C9.92926 4.20954 10.1531 4.4334 10.4293 4.4334C10.7054 4.4334 10.9293 4.20954 10.9293 3.9334V2.4334C10.9293 1.60497 10.2577 0.933398 9.42926 0.933398H2.43438Z" fill="currentColor"/>
</g>
</g>
</svg>
