<svg width="116" height="40" viewBox="0 0 116 40" fill="none" xmlns="http://www.w3.org/2000/svg">
<g clip-path="url(#clip0_22015_27517)">
<path d="M55.6483 26.9918V19.1365C55.6483 17.7808 55.3185 16.7501 54.6589 16.0444C53.9994 15.3388 52.9629 14.986 51.5497 14.986C50.5885 14.986 49.8253 15.0788 49.26 15.2645C48.6946 15.4316 48.3367 15.5524 48.1859 15.6266V26.9918H45.2744V13.7881C45.3498 13.751 45.5571 13.6674 45.8963 13.5375C46.2355 13.4075 46.6878 13.2682 47.2531 13.1196C47.8185 12.9711 48.478 12.8411 49.2317 12.7296C49.9855 12.6182 50.8147 12.5625 51.7192 12.5625C52.7557 12.5625 53.6979 12.7018 54.5458 12.9803C55.3939 13.2403 56.11 13.621 56.6941 14.1224C57.2971 14.6238 57.7588 15.2274 58.0793 15.9331C58.3995 16.6388 58.5598 17.4373 58.5598 18.3287V26.9918H55.6483Z" fill="black"/>
<path d="M55.6483 26.9918V19.1365C55.6483 17.7808 55.3185 16.7501 54.6589 16.0444C53.9994 15.3388 52.9629 14.986 51.5497 14.986C50.5885 14.986 49.8253 15.0788 49.26 15.2645C48.6946 15.4316 48.3367 15.5524 48.1859 15.6266V26.9918H45.2744V13.7881C45.3498 13.751 45.5571 13.6674 45.8963 13.5375C46.2355 13.4075 46.6878 13.2682 47.2531 13.1196C47.8185 12.9711 48.478 12.8411 49.2317 12.7296C49.9855 12.6182 50.8147 12.5625 51.7192 12.5625C52.7557 12.5625 53.6979 12.7018 54.5458 12.9803C55.3939 13.2403 56.11 13.621 56.6941 14.1224C57.2971 14.6238 57.7588 15.2274 58.0793 15.9331C58.3995 16.6388 58.5598 17.4373 58.5598 18.3287V26.9918H55.6483Z" fill="url(#paint0_linear_22015_27517)"/>
<path d="M77.4932 20C77.4932 21.0585 77.3047 22.0428 76.9278 22.9527C76.5697 23.8627 76.061 24.652 75.4014 25.3205C74.7419 25.9704 73.9504 26.4903 73.027 26.8803C72.1036 27.2518 71.086 27.4376 69.9742 27.4376C68.8623 27.4376 67.8354 27.2518 66.8932 26.8803C65.9697 26.4903 65.1783 25.9704 64.5187 25.3205C63.8592 24.652 63.341 23.8627 62.9641 22.9527C62.606 22.0428 62.427 21.0585 62.427 20C62.427 18.9415 62.606 17.9572 62.9641 17.0473C63.341 16.1373 63.8592 15.3574 64.5187 14.7074C65.1783 14.0389 65.9697 13.5189 66.8932 13.1475C67.8354 12.7575 68.8623 12.5625 69.9742 12.5625C71.086 12.5625 72.1036 12.7575 73.027 13.1475C73.9504 13.5189 74.7419 14.0389 75.4014 14.7074C76.061 15.3574 76.5697 16.1373 76.9278 17.0473C77.3047 17.9572 77.4932 18.9415 77.4932 20ZM74.4686 20C74.4686 19.2572 74.365 18.5793 74.1577 17.9665C73.9504 17.3352 73.6489 16.7966 73.2531 16.3509C72.8762 15.8866 72.4051 15.5338 71.8397 15.2924C71.2933 15.0324 70.6714 14.9024 69.9742 14.9024C69.2581 14.9024 68.6174 15.0324 68.0521 15.2924C67.5055 15.5338 67.0345 15.8866 66.6387 16.3509C66.2618 16.7966 65.9697 17.3352 65.7624 17.9665C65.5552 18.5793 65.4516 19.2572 65.4516 20C65.4516 20.7428 65.5552 21.4299 65.7624 22.0613C65.9697 22.6742 66.2618 23.2127 66.6387 23.6769C67.0345 24.1227 67.5055 24.4755 68.0521 24.7354C68.6174 24.9768 69.2581 25.0976 69.9742 25.0976C70.6714 25.0976 71.2933 24.9768 71.8397 24.7354C72.4051 24.4755 72.8762 24.1227 73.2531 23.6769C73.6489 23.2127 73.9504 22.6742 74.1577 22.0613C74.365 21.4299 74.4686 20.7428 74.4686 20Z" fill="black"/>
<path d="M77.4932 20C77.4932 21.0585 77.3047 22.0428 76.9278 22.9527C76.5697 23.8627 76.061 24.652 75.4014 25.3205C74.7419 25.9704 73.9504 26.4903 73.027 26.8803C72.1036 27.2518 71.086 27.4376 69.9742 27.4376C68.8623 27.4376 67.8354 27.2518 66.8932 26.8803C65.9697 26.4903 65.1783 25.9704 64.5187 25.3205C63.8592 24.652 63.341 23.8627 62.9641 22.9527C62.606 22.0428 62.427 21.0585 62.427 20C62.427 18.9415 62.606 17.9572 62.9641 17.0473C63.341 16.1373 63.8592 15.3574 64.5187 14.7074C65.1783 14.0389 65.9697 13.5189 66.8932 13.1475C67.8354 12.7575 68.8623 12.5625 69.9742 12.5625C71.086 12.5625 72.1036 12.7575 73.027 13.1475C73.9504 13.5189 74.7419 14.0389 75.4014 14.7074C76.061 15.3574 76.5697 16.1373 76.9278 17.0473C77.3047 17.9572 77.4932 18.9415 77.4932 20ZM74.4686 20C74.4686 19.2572 74.365 18.5793 74.1577 17.9665C73.9504 17.3352 73.6489 16.7966 73.2531 16.3509C72.8762 15.8866 72.4051 15.5338 71.8397 15.2924C71.2933 15.0324 70.6714 14.9024 69.9742 14.9024C69.2581 14.9024 68.6174 15.0324 68.0521 15.2924C67.5055 15.5338 67.0345 15.8866 66.6387 16.3509C66.2618 16.7966 65.9697 17.3352 65.7624 17.9665C65.5552 18.5793 65.4516 19.2572 65.4516 20C65.4516 20.7428 65.5552 21.4299 65.7624 22.0613C65.9697 22.6742 66.2618 23.2127 66.6387 23.6769C67.0345 24.1227 67.5055 24.4755 68.0521 24.7354C68.6174 24.9768 69.2581 25.0976 69.9742 25.0976C70.6714 25.0976 71.2933 24.9768 71.8397 24.7354C72.4051 24.4755 72.8762 24.1227 73.2531 23.6769C73.6489 23.2127 73.9504 22.6742 74.1577 22.0613C74.365 21.4299 74.4686 20.7428 74.4686 20Z" fill="url(#paint1_linear_22015_27517)"/>
<path d="M94.4115 13.6206C94.2985 14.0292 94.1007 14.577 93.818 15.2641C93.5542 15.9327 93.2432 16.6847 92.8852 17.5204C92.5271 18.3562 92.1314 19.2383 91.698 20.1667C91.2834 21.0767 90.8594 21.9681 90.426 22.8409C90.0114 23.6952 89.6063 24.503 89.2105 25.2643C88.8336 26.0072 88.5039 26.6292 88.2211 27.1307H85.1966C84.8574 26.5364 84.4994 25.8865 84.1225 25.1808C83.7644 24.4565 83.397 23.7323 83.0201 23.008C82.6621 22.2653 82.3135 21.5316 81.9743 20.8074C81.6351 20.0832 81.3147 19.4147 81.0131 18.8018C80.7305 18.1704 80.4762 17.6133 80.25 17.1305C80.0427 16.6476 79.8825 16.2762 79.7694 16.0162C79.6563 15.7563 79.5433 15.4777 79.4302 15.1806C79.3171 14.8834 79.2607 14.6049 79.2607 14.3449C79.2607 14.0106 79.3737 13.7042 79.5999 13.4256C79.826 13.1471 80.2123 13.0078 80.7588 13.0078C81.1357 13.0078 81.4277 13.045 81.6351 13.1192C81.8423 13.1935 81.9554 13.2399 81.9743 13.2585C82.2946 14.1313 82.6621 15.0877 83.0767 16.1277C83.51 17.1677 83.9435 18.1983 84.3769 19.2196C84.8292 20.2225 85.2626 21.1881 85.6772 22.1167C86.0918 23.0266 86.4592 23.7973 86.7796 24.4287C87.0058 24.0015 87.2978 23.398 87.6558 22.6181C88.0327 21.8195 88.419 20.9467 88.8148 19.9996C89.2294 19.0525 89.644 18.0776 90.0586 17.0747C90.4731 16.072 90.8406 15.1527 91.1609 14.317C91.3116 13.9085 91.5001 13.5928 91.7262 13.3699C91.9523 13.1285 92.3292 13.0078 92.8569 13.0078C93.3092 13.0078 93.6672 13.0914 93.931 13.2585C94.2138 13.4256 94.3739 13.5464 94.4115 13.6206Z" fill="black"/>
<path d="M94.4115 13.6206C94.2985 14.0292 94.1007 14.577 93.818 15.2641C93.5542 15.9327 93.2432 16.6847 92.8852 17.5204C92.5271 18.3562 92.1314 19.2383 91.698 20.1667C91.2834 21.0767 90.8594 21.9681 90.426 22.8409C90.0114 23.6952 89.6063 24.503 89.2105 25.2643C88.8336 26.0072 88.5039 26.6292 88.2211 27.1307H85.1966C84.8574 26.5364 84.4994 25.8865 84.1225 25.1808C83.7644 24.4565 83.397 23.7323 83.0201 23.008C82.6621 22.2653 82.3135 21.5316 81.9743 20.8074C81.6351 20.0832 81.3147 19.4147 81.0131 18.8018C80.7305 18.1704 80.4762 17.6133 80.25 17.1305C80.0427 16.6476 79.8825 16.2762 79.7694 16.0162C79.6563 15.7563 79.5433 15.4777 79.4302 15.1806C79.3171 14.8834 79.2607 14.6049 79.2607 14.3449C79.2607 14.0106 79.3737 13.7042 79.5999 13.4256C79.826 13.1471 80.2123 13.0078 80.7588 13.0078C81.1357 13.0078 81.4277 13.045 81.6351 13.1192C81.8423 13.1935 81.9554 13.2399 81.9743 13.2585C82.2946 14.1313 82.6621 15.0877 83.0767 16.1277C83.51 17.1677 83.9435 18.1983 84.3769 19.2196C84.8292 20.2225 85.2626 21.1881 85.6772 22.1167C86.0918 23.0266 86.4592 23.7973 86.7796 24.4287C87.0058 24.0015 87.2978 23.398 87.6558 22.6181C88.0327 21.8195 88.419 20.9467 88.8148 19.9996C89.2294 19.0525 89.644 18.0776 90.0586 17.0747C90.4731 16.072 90.8406 15.1527 91.1609 14.317C91.3116 13.9085 91.5001 13.5928 91.7262 13.3699C91.9523 13.1285 92.3292 13.0078 92.8569 13.0078C93.3092 13.0078 93.6672 13.0914 93.931 13.2585C94.2138 13.4256 94.3739 13.5464 94.4115 13.6206Z" fill="url(#paint2_linear_22015_27517)"/>
<path d="M107.041 14.317C107.041 13.8713 107.173 13.5464 107.436 13.3421C107.7 13.1192 108.077 13.0078 108.567 13.0078C108.887 13.0078 109.17 13.045 109.415 13.1192C109.679 13.1935 109.858 13.2492 109.952 13.2864V26.9914C109.82 27.0286 109.585 27.0657 109.245 27.1029C108.925 27.14 108.529 27.1771 108.058 27.2143C107.587 27.27 107.069 27.3071 106.504 27.3257C105.938 27.3629 105.364 27.3814 104.779 27.3814C103.064 27.3814 101.67 27.1771 100.596 26.7686C99.5406 26.36 98.702 25.7658 98.0802 24.9858C97.3075 24.0015 96.9211 22.6923 96.9211 21.0582V14.317C96.9211 13.8713 97.0531 13.5464 97.3169 13.3421C97.5808 13.1192 97.9576 13.0078 98.4476 13.0078C98.7679 13.0078 99.0506 13.045 99.2955 13.1192C99.5594 13.1935 99.7385 13.2492 99.8326 13.2864V20.7518C99.8326 22.163 100.191 23.2216 100.907 23.9273C101.642 24.6329 102.876 24.9858 104.61 24.9858C105.269 24.9858 105.797 24.9673 106.193 24.9301C106.607 24.8743 106.89 24.828 107.041 24.7909V14.317Z" fill="black"/>
<path d="M107.041 14.317C107.041 13.8713 107.173 13.5464 107.436 13.3421C107.7 13.1192 108.077 13.0078 108.567 13.0078C108.887 13.0078 109.17 13.045 109.415 13.1192C109.679 13.1935 109.858 13.2492 109.952 13.2864V26.9914C109.82 27.0286 109.585 27.0657 109.245 27.1029C108.925 27.14 108.529 27.1771 108.058 27.2143C107.587 27.27 107.069 27.3071 106.504 27.3257C105.938 27.3629 105.364 27.3814 104.779 27.3814C103.064 27.3814 101.67 27.1771 100.596 26.7686C99.5406 26.36 98.702 25.7658 98.0802 24.9858C97.3075 24.0015 96.9211 22.6923 96.9211 21.0582V14.317C96.9211 13.8713 97.0531 13.5464 97.3169 13.3421C97.5808 13.1192 97.9576 13.0078 98.4476 13.0078C98.7679 13.0078 99.0506 13.045 99.2955 13.1192C99.5594 13.1935 99.7385 13.2492 99.8326 13.2864V20.7518C99.8326 22.163 100.191 23.2216 100.907 23.9273C101.642 24.6329 102.876 24.9858 104.61 24.9858C105.269 24.9858 105.797 24.9673 106.193 24.9301C106.607 24.8743 106.89 24.828 107.041 24.7909V14.317Z" fill="url(#paint3_linear_22015_27517)"/>
<path fill-rule="evenodd" clip-rule="evenodd" d="M26.561 16.6273C26.561 17.5414 25.435 17.9941 24.7864 17.3407L11.508 3.96396C13.3035 3.33965 15.2352 3 17.2474 3C20.678 3 23.8747 3.98725 26.561 5.68922V16.6273ZM31.3902 10.2672V16.6273C31.3902 21.8073 25.0099 24.372 21.3346 20.6695L7.05513 6.28448C2.77721 9.37816 0 14.3694 0 20C0 23.62 1.14792 26.9757 3.10453 29.7328V23.4067C3.10453 18.2267 9.4849 15.662 13.1601 19.3645L27.42 33.7297C31.709 30.6371 34.4948 25.6392 34.4948 20C34.4948 16.38 33.3469 13.0243 31.3902 10.2672ZM9.70832 22.6933L22.9618 36.0447C21.1734 36.6635 19.2503 37 17.2474 37C13.8168 37 10.6201 36.0127 7.9338 34.3107V23.4067C7.9338 22.4926 9.05975 22.0399 9.70832 22.6933Z" fill="url(#paint4_radial_22015_27517)"/>
<path fill-rule="evenodd" clip-rule="evenodd" d="M26.561 16.6273C26.561 17.5414 25.435 17.9941 24.7864 17.3407L11.508 3.96396C13.3035 3.33965 15.2352 3 17.2474 3C20.678 3 23.8747 3.98725 26.561 5.68922V16.6273ZM31.3902 10.2672V16.6273C31.3902 21.8073 25.0099 24.372 21.3346 20.6695L7.05513 6.28448C2.77721 9.37816 0 14.3694 0 20C0 23.62 1.14792 26.9757 3.10453 29.7328V23.4067C3.10453 18.2267 9.4849 15.662 13.1601 19.3645L27.42 33.7297C31.709 30.6371 34.4948 25.6392 34.4948 20C34.4948 16.38 33.3469 13.0243 31.3902 10.2672ZM9.70832 22.6933L22.9618 36.0447C21.1734 36.6635 19.2503 37 17.2474 37C13.8168 37 10.6201 36.0127 7.9338 34.3107V23.4067C7.9338 22.4926 9.05975 22.0399 9.70832 22.6933Z" fill="url(#paint5_linear_22015_27517)"/>
<path fill-rule="evenodd" clip-rule="evenodd" d="M26.561 16.6273C26.561 17.5414 25.435 17.9941 24.7864 17.3407L11.508 3.96396C13.3035 3.33965 15.2352 3 17.2474 3C20.678 3 23.8747 3.98725 26.561 5.68922V16.6273ZM31.3902 10.2672V16.6273C31.3902 21.8073 25.0099 24.372 21.3346 20.6695L7.05513 6.28448C2.77721 9.37816 0 14.3694 0 20C0 23.62 1.14792 26.9757 3.10453 29.7328V23.4067C3.10453 18.2267 9.4849 15.662 13.1601 19.3645L27.42 33.7297C31.709 30.6371 34.4948 25.6392 34.4948 20C34.4948 16.38 33.3469 13.0243 31.3902 10.2672ZM9.70832 22.6933L22.9618 36.0447C21.1734 36.6635 19.2503 37 17.2474 37C13.8168 37 10.6201 36.0127 7.9338 34.3107V23.4067C7.9338 22.4926 9.05975 22.0399 9.70832 22.6933Z" fill="url(#paint6_linear_22015_27517)"/>
</g>
<defs>
<linearGradient id="paint0_linear_22015_27517" x1="77.6133" y1="12.5625" x2="77.6133" y2="27.4374" gradientUnits="userSpaceOnUse">
<stop offset="0.415704"/>
<stop offset="0.921423" stop-opacity="0.6"/>
</linearGradient>
<linearGradient id="paint1_linear_22015_27517" x1="77.6133" y1="12.5625" x2="77.6133" y2="27.4374" gradientUnits="userSpaceOnUse">
<stop offset="0.415704"/>
<stop offset="0.921423" stop-opacity="0.6"/>
</linearGradient>
<linearGradient id="paint2_linear_22015_27517" x1="77.6132" y1="12.5621" x2="77.6132" y2="27.4371" gradientUnits="userSpaceOnUse">
<stop offset="0.415704"/>
<stop offset="0.921423" stop-opacity="0.6"/>
</linearGradient>
<linearGradient id="paint3_linear_22015_27517" x1="77.6133" y1="12.5621" x2="77.6133" y2="27.4371" gradientUnits="userSpaceOnUse">
<stop offset="0.415704"/>
<stop offset="0.921423" stop-opacity="0.6"/>
</linearGradient>
<radialGradient id="paint4_radial_22015_27517" cx="0" cy="0" r="1" gradientUnits="userSpaceOnUse" gradientTransform="translate(17.2474 20) rotate(135.414) scale(24.2172 24.2147)">
<stop offset="0.34" stop-color="#FF006A"/>
<stop offset="0.613333" stop-color="#E300BD"/>
<stop offset="0.766667" stop-color="#FF4CE1"/>
</radialGradient>
<linearGradient id="paint5_linear_22015_27517" x1="21.2718" y1="1.86667" x2="17.3606" y2="37.0126" gradientUnits="userSpaceOnUse">
<stop offset="0.0851785" stop-color="#FFBA33"/>
<stop offset="0.553333" stop-color="#FF006A" stop-opacity="0"/>
</linearGradient>
<linearGradient id="paint6_linear_22015_27517" x1="17.2474" y1="3" x2="17.2474" y2="37" gradientUnits="userSpaceOnUse">
<stop offset="0.546667" stop-opacity="0"/>
<stop offset="1" stop-opacity="0.6"/>
</linearGradient>
<clipPath id="clip0_22015_27517">
<rect width="110" height="34" fill="white" transform="translate(0 3)"/>
</clipPath>
</defs>
</svg>
