<svg width="270" height="270" viewBox="0 0 270 270" fill="none" xmlns="http://www.w3.org/2000/svg">
<path fill-rule="evenodd" clip-rule="evenodd" d="M207.9 108.217C207.9 115.476 199.087 119.071 194.01 113.882L90.076 7.65494C104.13 2.69721 119.25 0 135 0C161.852 0 186.874 7.8399 207.9 21.3556V108.217ZM245.7 57.7105V108.217C245.7 149.352 195.759 169.719 166.992 140.317L55.2224 26.0826C21.738 50.6501 0 90.2865 0 135C0 163.747 8.98505 190.395 24.3 212.29V162.053C24.3 120.918 74.2409 100.551 103.008 129.953L214.624 244.03C248.195 219.471 270 179.782 270 135C270 106.253 261.015 79.605 245.7 57.7105ZM75.9897 156.388L179.728 262.414C165.73 267.328 150.677 270 135 270C108.148 270 83.1262 262.16 62.1 248.644V162.053C62.1 154.794 70.9131 151.199 75.9897 156.388Z" fill="url(#paint0_radial_405_727)"/>
<path fill-rule="evenodd" clip-rule="evenodd" d="M207.9 108.217C207.9 115.476 199.087 119.071 194.01 113.882L90.076 7.65494C104.13 2.69721 119.25 0 135 0C161.852 0 186.874 7.8399 207.9 21.3556V108.217ZM245.7 57.7105V108.217C245.7 149.352 195.759 169.719 166.992 140.317L55.2224 26.0826C21.738 50.6501 0 90.2865 0 135C0 163.747 8.98505 190.395 24.3 212.29V162.053C24.3 120.918 74.2409 100.551 103.008 129.953L214.624 244.03C248.195 219.471 270 179.782 270 135C270 106.253 261.015 79.605 245.7 57.7105ZM75.9897 156.388L179.728 262.414C165.73 267.328 150.677 270 135 270C108.148 270 83.1262 262.16 62.1 248.644V162.053C62.1 154.794 70.9131 151.199 75.9897 156.388Z" fill="url(#paint1_linear_405_727)"/>
<path fill-rule="evenodd" clip-rule="evenodd" d="M207.9 108.217C207.9 115.476 199.087 119.071 194.01 113.882L90.076 7.65494C104.13 2.69721 119.25 0 135 0C161.852 0 186.874 7.8399 207.9 21.3556V108.217ZM245.7 57.7105V108.217C245.7 149.352 195.759 169.719 166.992 140.317L55.2224 26.0826C21.738 50.6501 0 90.2865 0 135C0 163.747 8.98505 190.395 24.3 212.29V162.053C24.3 120.918 74.2409 100.551 103.008 129.953L214.624 244.03C248.195 219.471 270 179.782 270 135C270 106.253 261.015 79.605 245.7 57.7105ZM75.9897 156.388L179.728 262.414C165.73 267.328 150.677 270 135 270C108.148 270 83.1262 262.16 62.1 248.644V162.053C62.1 154.794 70.9131 151.199 75.9897 156.388Z" fill="url(#paint2_linear_405_727)"/>
<defs>
<radialGradient id="paint0_radial_405_727" cx="0" cy="0" r="1" gradientUnits="userSpaceOnUse" gradientTransform="translate(135 135) rotate(135) scale(190.919 190.919)">
<stop offset="0.34" stop-color="#FF006A"/>
<stop offset="0.613333" stop-color="#E300BD"/>
<stop offset="0.766667" stop-color="#FF4CE1"/>
</radialGradient>
<linearGradient id="paint1_linear_405_727" x1="166.5" y1="-9" x2="135" y2="270" gradientUnits="userSpaceOnUse">
<stop offset="0.0851785" stop-color="#FFBA33"/>
<stop offset="0.553333" stop-color="#FF006A" stop-opacity="0"/>
</linearGradient>
<linearGradient id="paint2_linear_405_727" x1="135" y1="0" x2="135" y2="270" gradientUnits="userSpaceOnUse">
<stop offset="0.546667" stop-opacity="0"/>
<stop offset="1" stop-opacity="0.6"/>
</linearGradient>
</defs>
</svg>
